#!OML:ASF E:/inclinewalkrobotboard/Project1/Captureday1/Session1/subject1.ASF
:FULLY-SPECIFIED
:DEGREES
163
root 0 0 0 1.258182847638217 -3.5918130801070878 1.899609546447993
lowerback 12.042793627958376 0.8483005853785679 -0.10760737448952007
upperback -4.409497638638158 1.065358362394455 -0.6024244282542771
thorax -11.572996497811602 0.48726952518900835 -0.8027516446627068
lowerneck -5.96183577038542 1.7283517360379823 4.699973495720501
upperneck 18.393801689338368 3.2872084722095387 -8.468764219042
head 6.731557171758262 1.2127783885280192 -3.252940719983287
rclavicle -3.777944515356128E-16 -2.1124784980280235E-15
rhumerus 20.789202123838123 14.832603272615787 -47.294136343225446
rradius 72.87480645832495
rwrist 27.41879288354403
rhand -34.558152496581585 -57.65215519909798
rfingers 7.12502000000002
rthumb -7.751659734366205 -87.60841743423592
lclavicle -2.203093330142247E-15 4.191211304567827E-16
lhumerus 21.890046539819608 -13.057905823097391 44.45077365081678
lradius 70.73856537099934
lwrist -22.502934937581173
lhand -45.09592648801375 -70.8425797209612
lfingers 7.125020000000016
lthumb -17.857534320907003 -41.899536550418716
rfemur -25.61384241432565 -2.371274678282842 16.876725978413287
rtibia 54.52160263279651
rfoot -31.33728960986472 -17.85163062444063
rtoes -19.03609024727461
lfemur -27.98740294192306 2.8319855968528698 -18.342193883940094
ltibia 54.785486557201835
lfoot -33.21662993913846 -3.5342024113566657
ltoes -20.659078817481813
164
root 0 0 0 1.2581403119617076 -3.591774438143001 1.899606498811742
lowerback 12.04277144154871 0.848303683980622 -0.10761020351361383
upperback -4.409497000132609 1.0653613287700918 -0.6024229164804494
thorax -11.572984500778025 0.4872708752919458 -0.8027488706942512
lowerneck -5.961814509023854 1.7283632540633687 4.700004017266609
upperneck 18.39382112286374 3.287224789023658 -8.468802296075022
head 6.731559155402952 1.2127843220221068 -3.252955979268272
rclavicle -3.779848154841332E-16 -2.11270259518526E-15
rhumerus 20.788844348893498 14.832072076944085 -47.29376043378468
rradius 72.8745320322346
rwrist 27.419201059712265
rhand -34.55816310921857 -57.65226623193752
rfingers 7.12502000000002
rthumb -7.751674073028683 -87.6085128886105
lclavicle -2.2031951324254776E-15 4.1895194736606264E-16
lhumerus 21.889979951277553 -13.05764630597989 44.45064894732262
lradius 70.7384356948939
lwrist -22.503115317555206
lhand -45.095908978661484 -70.84281753911623
lfingers 7.125020000000016
lthumb -17.85751852275485 -41.899788238162785
rfemur -25.61323021607301 -2.3714115995618856 16.87662785045746
rtibia 54.5222352382133
rfoot -31.336421552959795 -17.85115165413746
rtoes -19.036416437657902
lfemur -27.98678376580166 2.8321321478957846 -18.342572882031373
ltibia 54.78648008475622
lfoot -33.215850120903035 -3.535186351814123
ltoes -20.659136700030153
165
root 0 0 0 1.25764032304467 -3.5911633846788025 1.8995607300826962
lowerback 12.042965210642441 0.8481584407661584 -0.1075809400543778
upperback -4.409417084229377 1.0652161133766282 -0.6023739619725282
thorax -11.573015550787161 0.4871846787279103 -0.8027385121206423
lowerneck -5.962162151516821 1.7281764477955905 4.699931563418207
upperneck 18.39373954943617 3.28694343910818 -8.468624976832276
head 6.73160667724123 1.2126605516002562 -3.252932970851983
rclavicle -3.8681126661309447E-16 -2.099612921555844E-15
rhumerus 20.787301270284374 14.829608173312364 -47.29453098157887
rradius 72.87550448395906
rwrist 27.418620188265876
rhand -34.55932981307636 -57.651843545676165
rfingers 7.12502000000002
rthumb -7.752682129499311 -87.60702265851094
lclavicle -2.2364026763304196E-15 4.300926520809382E-16
lhumerus 21.890719602987055 -13.061113704460046 44.45243566565041
lradius 70.7402249317567
lwrist -22.500524008483325
lhand -45.09545959942411 -70.83709758716802
lfingers 7.125020000000016
lthumb -17.856930346904925 -41.893861911645544
rfemur -25.614687040434443 -2.3758185036962596 16.87870879553439
rtibia 54.52908848449458
rfoot -31.331718806667137 -17.85002272746241
rtoes -19.015581540263383
lfemur -27.99458418292204 2.8366605199334094 -18.347816617293617
ltibia 54.79782866574636
lfoot -33.210285266819746 -3.53648252368287
ltoes -20.638854740937404
166
root 0 0 0 1.2581882157298203 -3.5916607531917077 1.8997737120046754
lowerback 12.042909363946777 0.8482618177695562 -0.10767291808318713
upperback -4.409474038338684 1.0653007732317241 -0.6024619987343333
thorax -11.573038333285497 0.4872413092901473 -0.8027442001958027
lowerneck -5.961950845489573 1.7282865764375115 4.699910904493715
upperneck 18.39372730803651 3.2871124724499383 -8.468641300318856
head 6.73155638794538 1.2127437618417702 -3.2529041285466898
rclavicle -3.7659049022935794E-16 -2.1118610069766194E-15
rhumerus 20.789801510205777 14.83356063038896 -47.29486897679415
rradius 72.87515472916758
rwrist 27.41804210611096
rhand -34.558055591762525 -57.651811347965435
rfingers 7.12502000000002
rthumb -7.751579336586868 -87.60808551818502
lclavicle -2.200953579216332E-15 4.1760494785279114E-16
lhumerus 21.889838546260933 -13.057948824485269 44.45107671644535
lradius 70.73837575918874
lwrist -22.50273303834198
lhand -45.09577919085541 -70.84175031178731
lfingers 7.125020000000016
lthumb -17.85740539696696 -41.89857096639928
rfemur -25.61666482995593 -2.371053616524355 16.876533280812136
rtibia 54.52148680480493
rfoot -31.33693275791261 -17.853758066713393
rtoes -19.029683176073856
lfemur -27.991143957189763 2.8337075164598207 -18.34416792454743
ltibia 54.78993864252043
lfoot -33.21757428001444 -3.533318036872102
ltoes -20.650736476103503
167
root 0 0 0 1.2582385880966815 -3.591842074044818 1.899654934757903
lowerback 12.04286958128089 0.848287490200532 -0.10761972203352865
upperback -4.409499750248271 1.0653414494880946 -0.6024390895151516
thorax -11.573040712660482 0.48726100424496055 -0.8027596592141311
lowerneck -5.961895099397485 1.7283160191313918 4.69991129718328
upperneck 18.393739222930375 3.2871544992129333 -8.468673979012449
head 6.7315485416122565 1.2127583057687792 -3.2529096597416967
rclavicle -3.766234888315308E-16 -2.1120909126592243E-15
rhumerus 20.789738335021667 14.833351110226873 -47.29465508487875
rradius 72.8752089678844
rwrist 27.418229981366945
rhand -34.55811572726013 -57.651941546788535
rfingers 7.12502000000002
rthumb -7.751616034009256 -87.60827228777083
lclavicle -2.2025572335367164E-15 4.193143312649854E-16
lhumerus 21.890134377955945 -13.058184291489736 44.45090306602603
lradius 70.73869143625689
lwrist -22.502770275332885
lhand -45.0959040722328 -70.8422290678749
lfingers 7.125020000000016
lthumb -17.85750967528591 -41.89915772649134
rfemur -25.615407848078696 -2.371051011347868 16.876874540056697
rtibia 54.52062856488286
rfoot -31.338442321463027 -17.85297050946898
rtoes -19.0338674937191
lfemur -27.989261520097045 2.8321265952387704 -18.34206407693789
ltibia 54.78516130632786
lfoot -33.21836584214536 -3.53241563200194
ltoes -20.65725310841102
168
root 0 0 0 1.2581836472130488 -3.5918125200438897 1.8996102170851996
lowerback 12.042794673149533 0.8483002522126157 -0.1076074290302691
upperback -4.409497595287428 1.065357949677867 -0.6024245827577549
thorax -11.572997024458942 0.4872693196151687 -0.8027517169769249
lowerneck -5.9618368488643085 1.7283512639094878 4.699972612316531
upperneck 18.39380116013668 3.287207778507198 -8.468762830967515
head 6.731557216670591 1.2127781376914504 -3.2529402144600654
rclavicle -3.7779184960583173E-16 -2.11247421764967E-15
rhumerus 20.78920754586055 14.832611745699237 -47.29414304516774
rradius 72.87481062538512
rwrist 27.41878576831874
rhand -34.55815223224026 -57.65215264320119
rfingers 7.12502000000002
rthumb -7.751659404660018 -87.60841487045585
lclavicle -2.2030911324342984E-15 4.191252478036167E-16
lhumerus 21.890047437657024 -13.0579106843408 44.45077644656688
lradius 70.73856751181899
lwrist -22.502931376838767
lhand -45.09592676139316 -70.84257496809224
lfingers 7.125020000000016
lthumb -17.857534571736096 -41.899531315784515
rfemur -25.613865490326475 -2.3712713397438394 16.876728185911933
rtibia 54.521588495222645
rfoot -31.337308185180067 -17.851645340981392
rtoes -19.03606475125317
lfemur -27.987418790381405 2.8319863628177098 -18.34219072186457
ltibia 54.78547999810665
lfoot -33.21664375766829 -3.5341846513802997
ltoes -20.65906435928178
169
root 0 0 0 1.2576522868112616 -3.591186514602278 1.8995513960341954
lowerback 12.042963957043327 0.8481602984776238 -0.10757667445736108
upperback -4.409418734356745 1.0652192070233062 -0.6023720957807267
thorax -11.573016018635252 0.4871862518887417 -0.8027394925767799
lowerneck -5.962159539274393 1.7281773212323237 4.699926723217888
upperneck 18.393738612125446 3.286944973917624 -8.468621953902867
head 6.731605897612748 1.2126611320196412 -3.2529309579009347
rclavicle -3.8674481125856917E-16 -2.0995611983606476E-15
rhumerus 20.787404921381473 14.829757951428755 -47.29462671563597
rradius 72.87558437947109
rwrist 27.418513485157703
rhand -34.55933006610131 -57.65182751294609
rfingers 7.12502000000002
rthumb -7.752680934809838 -87.60701414853881
lclavicle -2.236372439454639E-15 4.3012390096144963E-16
lhumerus 21.890750908948917 -13.061192643785432 44.45246141621048
lradius 70.74027307028703
lwrist -22.50047586325168
lhand -45.095465160256296 -70.83703361445858
lfingers 7.125020000000016
lthumb -17.8569352286587 -41.89379854547077
rfemur -25.614695735272875 -2.3757943063616356 16.878744264303794
rtibia 54.528936999846245
rfoot -31.33195959385336 -17.85005559113669
rtoes -19.015796284315552
lfemur -27.994631431362787 2.836546654503544 -18.347624693549623
ltibia 54.79734700573548
lfoot -33.21045260374538 -3.536241092376492
ltoes -20.63915133299473
170
root 0 0 0 1.2581908919576548 -3.591671468863427 1.8997678381223269
lowerback 12.042906071447069 0.8482634322170151 -0.10767080990740086
upperback -4.409474869030408 1.0653031268348987 -0.602460750087575
thorax -11.573037161910568 0.48724249228224603 -0.8027444590401496
lowerneck -5.961946886325344 1.7282882638238368 4.699911310742022
upperneck 18.393728472415177 3.2871150559598865 -8.468643794066942
head 6.731555989438777 1.212744709227397 -3.2529046533897876
rclavicle -3.7657005479333167E-16 -2.111851615630231E-15
rhumerus 20.789829073182204 14.833598829517564 -47.294889995047626
rradius 72.87517601987683
rwrist 27.418017737875388
rhand -34.55805637239059 -57.651811556126184
rfingers 7.12502000000002
rthumb -7.751579697865395 -87.60808875728435
lclavicle -2.2009471509148457E-15 4.176067469155016E-16
lhumerus 21.889849195178606 -13.057968323170996 44.45107968616014
lradius 70.73839002603161
lwrist -22.502722708569628
lhand -45.09578085197298 -70.84173694041661
lfingers 7.125020000000016
lthumb -17.857406837707394 -41.89855927563309
rfemur -25.6166060979423 -2.3710530375226853 16.876543251068703
rtibia 54.52146275614531
rfoot -31.336984688352402 -17.853730703026976
rtoes -19.029841267710786
lfemur -27.991116758685337 2.8336569931653943 -18.34409509935201
ltibia 54.78975751315137
lfoot -33.217601334669894 -3.5332689383095532
ltoes -20.6509050669372
